<?xml version="1.0" encoding="utf-8"?>
<!-- Generator: Adobe Illustrator 16.0.4, SVG Export Plug-In . SVG Version: 6.00 Build 0)  -->
<!DOCTYPE svg PUBLIC "-//W3C//DTD SVG 1.1//EN" "http://www.w3.org/Graphics/SVG/1.1/DTD/svg11.dtd">
<svg version="1.1" id="Layer_1" xmlns="http://www.w3.org/2000/svg" xmlns:xlink="http://www.w3.org/1999/xlink" x="0px" y="0px"
	 width="76px" height="72px" viewBox="0 0 76 72" enable-background="new 0 0 76 72" xml:space="preserve">
<path fill="#E65345" d="M73.119,34.588c-0.487-0.494-1.159-0.803-1.882-0.803c0.101,0-1.236,0.391-2.904,0.867
	c-0.834,0.238-1.737,0.498-2.584,0.742v-0.73c0-17.556-14.28-31.837-31.837-31.837c-17.556,0-31.837,14.281-31.837,31.837V72h17.084
	V34.664c0-8.135,6.618-14.755,14.753-14.755s14.754,6.62,14.754,14.755v0.73c-0.848-0.244-1.754-0.504-2.59-0.742
	c-1.664-0.477-3.003-0.867-2.9-0.867c-0.722,0-1.391,0.309-1.884,0.803c-0.488,0.488-0.799,1.16-0.799,1.887
	c0,0.258,0.026,0.539,0.088,0.82c0.067,0.281,0.171,0.566,0.328,0.828l7.833,11.445l7.844,11.457
	c0.105,0.154,0.184,0.256,0.272,0.322c0.094,0.061,0.193,0.088,0.347,0.088c0.156,0,0.258-0.027,0.352-0.088
	c0.086-0.066,0.165-0.168,0.267-0.322l7.842-11.457l7.841-11.445c0.156-0.262,0.26-0.547,0.32-0.828
	c0.066-0.281,0.098-0.562,0.098-0.82C73.924,35.748,73.615,35.076,73.119,34.588z"/>
</svg>
