<?xml version="1.0" encoding="utf-8"?>
<!-- Generator: Adobe Illustrator 16.0.4, SVG Export Plug-In . SVG Version: 6.00 Build 0)  -->
<!DOCTYPE svg PUBLIC "-//W3C//DTD SVG 1.1//EN" "http://www.w3.org/Graphics/SVG/1.1/DTD/svg11.dtd">
<svg version="1.1" id="Layer_1" xmlns="http://www.w3.org/2000/svg" xmlns:xlink="http://www.w3.org/1999/xlink" x="0px" y="0px"
	 width="58px" height="84px" viewBox="0 0 58 84" enable-background="new 0 0 58 84" xml:space="preserve">
<path fill="#E65345" d="M55.241,3.073c-0.021-0.107-0.072-0.197-0.182-0.307c-0.11-0.11-0.2-0.164-0.31-0.187
	c-0.11-0.014-0.237,0.005-0.419,0.038L40.686,5.177l-13.64,2.549c-0.293,0.073-0.568,0.202-0.812,0.359
	c-0.245,0.148-0.468,0.331-0.647,0.512c-0.512,0.514-0.77,1.204-0.766,1.902c-0.004,0.693,0.252,1.386,0.762,1.896
	c-0.068-0.071,1.152,0.6,2.668,1.441c0.765,0.426,1.596,0.888,2.374,1.316L14.354,31.427C6.873,38.906,2.753,48.852,2.753,59.431V84
	h17.084V59.431c0-6.016,2.344-11.671,6.596-15.924l16.264-16.265c0.424,0.766,0.874,1.581,1.293,2.334
	c0.841,1.514,1.512,2.735,1.438,2.663c0.509,0.51,1.202,0.766,1.897,0.763c0.694,0,1.387-0.253,1.901-0.768
	c0.182-0.181,0.362-0.401,0.517-0.643c0.152-0.245,0.281-0.522,0.354-0.815l2.555-13.635l2.554-13.648
	C55.239,3.312,55.257,3.185,55.241,3.073z"/>
</svg>
