<?xml version="1.0" encoding="utf-8"?>
<!-- Generator: Adobe Illustrator 16.0.4, SVG Export Plug-In . SVG Version: 6.00 Build 0)  -->
<!DOCTYPE svg PUBLIC "-//W3C//DTD SVG 1.1//EN" "http://www.w3.org/Graphics/SVG/1.1/DTD/svg11.dtd">
<svg version="1.1" id="Layer_1" xmlns="http://www.w3.org/2000/svg" xmlns:xlink="http://www.w3.org/1999/xlink" x="0px" y="0px"
	 width="74px" height="50px" viewBox="0 0 74 50" enable-background="new 0 0 74 50" xml:space="preserve">
<path fill="#E65345" d="M70.46,18.994c-0.066-0.086-0.17-0.164-0.322-0.268l-11.457-7.84L47.233,3.045
	c-0.258-0.156-0.545-0.26-0.828-0.32c-0.279-0.068-0.562-0.096-0.818-0.096c-0.729,0-1.398,0.307-1.889,0.805
	c-0.492,0.486-0.801,1.158-0.801,1.881c0-0.102,0.389,1.236,0.867,2.904c0.238,0.834,0.496,1.738,0.742,2.584h-5.336
	c-19.693,0-35.719,16.023-35.719,35.719V50h17.084v-3.479c0-10.277,8.361-18.635,18.635-18.635h5.336
	c-0.246,0.846-0.504,1.752-0.742,2.588c-0.479,1.666-0.867,3.004-0.867,2.9c0,0.723,0.309,1.391,0.801,1.883
	c0.49,0.49,1.16,0.801,1.889,0.801c0.256,0,0.539-0.027,0.818-0.088c0.283-0.068,0.57-0.172,0.828-0.326l11.447-7.836l11.457-7.844
	c0.152-0.105,0.256-0.182,0.322-0.271c0.061-0.094,0.088-0.193,0.088-0.348C70.548,19.189,70.521,19.09,70.46,18.994z"/>
</svg>
