<?xml version="1.0" encoding="utf-8"?>
<!-- Generator: Adobe Illustrator 16.0.4, SVG Export Plug-In . SVG Version: 6.00 Build 0)  -->
<!DOCTYPE svg PUBLIC "-//W3C//DTD SVG 1.1//EN" "http://www.w3.org/Graphics/SVG/1.1/DTD/svg11.dtd">
<svg version="1.1" id="Layer_1" xmlns="http://www.w3.org/2000/svg" xmlns:xlink="http://www.w3.org/1999/xlink" x="0px" y="0px"
	 width="80px" height="76px" viewBox="0 0 80 76" enable-background="new 0 0 80 76" xml:space="preserve">
<path fill="#E65345" d="M77.344,20.149c-0.066-0.088-0.17-0.166-0.323-0.27l-11.456-7.838L54.115,4.198
	c-0.259-0.155-0.543-0.26-0.825-0.32c-0.282-0.068-0.564-0.095-0.821-0.095c-0.727,0-1.396,0.307-1.887,0.804
	c-0.494,0.486-0.801,1.156-0.801,1.88c0-0.1,0.39,1.237,0.865,2.905c0.24,0.834,0.498,1.738,0.744,2.582h-13.1
	c-19.695,0-35.721,16.024-35.721,35.72v28.328h17.084V47.674c0-10.275,8.36-18.635,18.637-18.635h13.1
	c-0.246,0.848-0.504,1.752-0.744,2.592c-0.476,1.662-0.865,3.002-0.865,2.898c0,0.723,0.307,1.393,0.801,1.883
	c0.491,0.49,1.16,0.801,1.887,0.801c0.257,0,0.539-0.027,0.821-0.09c0.282-0.066,0.566-0.17,0.825-0.326l11.449-7.834l11.456-7.845
	c0.153-0.105,0.257-0.182,0.323-0.271c0.061-0.092,0.086-0.193,0.086-0.348C77.43,20.343,77.404,20.243,77.344,20.149z"/>
</svg>
