<?xml version="1.0" encoding="utf-8"?>
<!-- Generator: Adobe Illustrator 16.0.4, SVG Export Plug-In . SVG Version: 6.00 Build 0)  -->
<!DOCTYPE svg PUBLIC "-//W3C//DTD SVG 1.1//EN" "http://www.w3.org/Graphics/SVG/1.1/DTD/svg11.dtd">
<svg version="1.1" id="Layer_1" xmlns="http://www.w3.org/2000/svg" xmlns:xlink="http://www.w3.org/1999/xlink" x="0px" y="0px"
	 width="36px" height="88px" viewBox="0 0 36 88" enable-background="new 0 0 36 88" xml:space="preserve">
<path fill="#E65345" d="M34.627,25.306c-0.066-0.281-0.17-0.568-0.327-0.825l-7.834-11.45L18.621,1.573
	c-0.104-0.15-0.182-0.255-0.271-0.321c-0.092-0.062-0.189-0.089-0.346-0.089c-0.157,0-0.259,0.027-0.351,0.089
	c-0.089,0.066-0.165,0.171-0.27,0.321L9.545,13.031L1.703,24.479c-0.16,0.26-0.262,0.545-0.32,0.828
	c-0.069,0.279-0.098,0.564-0.098,0.819c0.002,0.727,0.307,1.396,0.806,1.887c0.485,0.494,1.156,0.803,1.879,0.803
	c-0.101-0.002,1.239-0.391,2.905-0.867c0.834-0.237,1.738-0.496,2.584-0.741v60.795h17.083V27.206
	c0.849,0.244,1.755,0.504,2.591,0.742c1.665,0.477,3.003,0.867,2.9,0.867c0.721,0,1.391-0.309,1.882-0.803
	c0.491-0.491,0.8-1.16,0.8-1.887C34.715,25.87,34.688,25.586,34.627,25.306z"/>
</svg>
