<?xml version="1.0" encoding="utf-8"?>
<!-- Generator: Adobe Illustrator 16.0.4, SVG Export Plug-In . SVG Version: 6.00 Build 0)  -->
<!DOCTYPE svg PUBLIC "-//W3C//DTD SVG 1.1//EN" "http://www.w3.org/Graphics/SVG/1.1/DTD/svg11.dtd">
<svg version="1.1" id="Layer_1" xmlns="http://www.w3.org/2000/svg" xmlns:xlink="http://www.w3.org/1999/xlink" x="0px" y="0px"
	 width="60px" height="52px" viewBox="0 0 60 52" enable-background="new 0 0 60 52" xml:space="preserve">
<path fill="#E65345" d="M57.355,24.748c-0.487-0.494-1.158-0.803-1.881-0.803c0.101,0-1.237,0.391-2.905,0.867
	c-0.842,0.24-1.756,0.5-2.609,0.75C49.42,12.762,38.844,2.515,25.914,2.515c-13.273,0-24.072,10.8-24.072,24.073V52h17.083V26.588
	c0-3.854,3.137-6.99,6.989-6.99c3.493,0,6.386,2.58,6.899,5.932c-0.822-0.24-1.693-0.486-2.502-0.717
	c-1.663-0.477-3.004-0.867-2.898-0.867c-0.723,0-1.391,0.309-1.882,0.803c-0.49,0.488-0.802,1.16-0.802,1.887
	c0,0.256,0.027,0.539,0.09,0.82c0.066,0.283,0.169,0.566,0.325,0.826l7.836,11.447l7.844,11.455c0.104,0.154,0.181,0.26,0.271,0.326
	c0.092,0.059,0.193,0.088,0.348,0.088c0.157,0,0.257-0.029,0.351-0.088c0.087-0.066,0.165-0.172,0.269-0.326l7.84-11.455
	l7.844-11.447c0.154-0.26,0.258-0.543,0.318-0.826c0.068-0.281,0.095-0.564,0.095-0.82C58.158,25.908,57.853,25.236,57.355,24.748z"
	/>
</svg>
