<?xml version="1.0" encoding="utf-8"?>
<!-- Generator: Adobe Illustrator 16.0.4, SVG Export Plug-In . SVG Version: 6.00 Build 0)  -->
<!DOCTYPE svg PUBLIC "-//W3C//DTD SVG 1.1//EN" "http://www.w3.org/Graphics/SVG/1.1/DTD/svg11.dtd">
<svg version="1.1" id="Layer_1" xmlns="http://www.w3.org/2000/svg" xmlns:xlink="http://www.w3.org/1999/xlink" x="0px" y="0px"
	 width="36px" height="110px" viewBox="0 0 36 110" enable-background="new 0 0 36 110" xml:space="preserve">
<path fill="#E65345" d="M34.625,25.563c-0.064-0.281-0.171-0.568-0.327-0.825l-7.835-11.449L18.62,1.833
	c-0.104-0.152-0.183-0.256-0.271-0.324c-0.094-0.06-0.192-0.087-0.347-0.087c-0.155,0-0.258,0.026-0.353,0.087
	c-0.086,0.068-0.162,0.172-0.267,0.324L9.542,13.29L1.7,24.737c-0.156,0.259-0.26,0.544-0.318,0.828
	c-0.07,0.279-0.096,0.563-0.096,0.818c0,0.727,0.305,1.396,0.802,1.887c0.487,0.494,1.157,0.803,1.882,0.803
	c-0.102-0.001,1.237-0.391,2.904-0.867c0.833-0.237,1.737-0.496,2.583-0.74v82.536h17.084V27.464
	c0.847,0.246,1.752,0.504,2.591,0.742c1.664,0.478,3.003,0.867,2.9,0.867c0.721,0,1.389-0.309,1.88-0.803
	c0.491-0.49,0.802-1.16,0.802-1.887C34.714,26.128,34.686,25.845,34.625,25.563z"/>
</svg>
