<?xml version="1.0" encoding="utf-8"?>
<!-- Generator: Adobe Illustrator 16.0.4, SVG Export Plug-In . SVG Version: 6.00 Build 0)  -->
<!DOCTYPE svg PUBLIC "-//W3C//DTD SVG 1.1//EN" "http://www.w3.org/Graphics/SVG/1.1/DTD/svg11.dtd">
<svg version="1.1" id="Layer_1" xmlns="http://www.w3.org/2000/svg" xmlns:xlink="http://www.w3.org/1999/xlink" x="0px" y="0px"
	 width="58px" height="106px" viewBox="0 0 58 106" enable-background="new 0 0 58 106" xml:space="preserve">
<path fill="#E65345" d="M55.24,1.781c-0.021-0.108-0.071-0.197-0.182-0.307c-0.111-0.111-0.202-0.164-0.312-0.187
	c-0.11-0.014-0.235,0.005-0.417,0.038L40.686,3.883l-13.641,2.55c-0.295,0.072-0.569,0.201-0.812,0.359
	c-0.246,0.148-0.468,0.33-0.646,0.512c-0.514,0.514-0.771,1.204-0.768,1.901c-0.004,0.694,0.252,1.386,0.764,1.897
	c-0.07-0.071,1.15,0.6,2.667,1.44c0.764,0.427,1.596,0.888,2.374,1.317L14.352,30.134C6.873,37.613,2.753,47.559,2.753,58.138
	v47.864h17.083V58.138c0-6.016,2.341-11.672,6.597-15.924l16.263-16.264c0.422,0.766,0.874,1.58,1.293,2.332
	c0.84,1.514,1.511,2.736,1.438,2.664c0.509,0.509,1.201,0.766,1.897,0.762c0.694,0,1.387-0.253,1.898-0.767
	c0.184-0.181,0.364-0.401,0.519-0.644c0.153-0.246,0.282-0.521,0.353-0.814l2.557-13.635l2.554-13.648
	C55.239,2.02,55.257,1.89,55.24,1.781z"/>
</svg>
