<?xml version="1.0" encoding="utf-8"?>
<!-- Generator: Adobe Illustrator 16.0.4, SVG Export Plug-In . SVG Version: 6.00 Build 0)  -->
<!DOCTYPE svg PUBLIC "-//W3C//DTD SVG 1.1//EN" "http://www.w3.org/Graphics/SVG/1.1/DTD/svg11.dtd">
<svg version="1.1" id="Layer_1" xmlns="http://www.w3.org/2000/svg" xmlns:xlink="http://www.w3.org/1999/xlink" x="0px" y="0px"
	 width="66px" height="66px" viewBox="0 0 66 66" enable-background="new 0 0 66 66" xml:space="preserve">
<path fill="#E65345" d="M63.087,39.378l-2.558-13.645l-2.551-13.64c-0.072-0.295-0.201-0.568-0.357-0.809
	c-0.151-0.25-0.333-0.469-0.513-0.652c-0.513-0.512-1.204-0.77-1.901-0.764c-0.694-0.006-1.387,0.25-1.896,0.762
	c0.07-0.07-0.6,1.152-1.441,2.668c-0.376,0.676-0.781,1.404-1.166,2.102l-6.744-6.744c-4.547-4.545-10.59-7.047-17.015-7.047
	c-13.274,0-24.073,10.799-24.073,24.073v40.318h17.083V25.683c0-3.855,3.134-6.99,6.99-6.99c1.862,0,3.618,0.729,4.937,2.047
	l6.854,6.854c-0.84,0.463-1.763,0.977-2.604,1.443c-1.516,0.842-2.737,1.512-2.664,1.438c-0.511,0.51-0.766,1.203-0.764,1.898
	c0,0.695,0.255,1.389,0.768,1.9c0.18,0.182,0.4,0.363,0.644,0.518c0.245,0.152,0.521,0.283,0.815,0.354l13.633,2.555l13.648,2.555
	c0.183,0.033,0.31,0.053,0.421,0.035c0.108-0.021,0.197-0.072,0.309-0.182c0.107-0.109,0.162-0.201,0.185-0.311
	C63.138,39.687,63.12,39.56,63.087,39.378z"/>
</svg>
