<?xml version="1.0" encoding="utf-8"?>
<!-- Generator: Adobe Illustrator 16.0.0, SVG Export Plug-In . SVG Version: 6.00 Build 0)  -->
<!DOCTYPE svg PUBLIC "-//W3C//DTD SVG 1.1//EN" "http://www.w3.org/Graphics/SVG/1.1/DTD/svg11.dtd">
<svg version="1.1" xmlns="http://www.w3.org/2000/svg" xmlns:xlink="http://www.w3.org/1999/xlink" x="0px" y="0px" width="44px"
	 height="44px" viewBox="0 0 44 44" enable-background="new 0 0 44 44" xml:space="preserve">
<g id="Background">
</g>
<g id="Layer_1">
	<path fill="none" d="M43.998,36.53c-0.44,0-0.873-0.07-1.304-0.222c-0.826-0.287-1.463-0.914-2.372-1.618
		c-1.035-0.826-2.18-1.184-3.298-1.182c-1.54,0-3.023,0.661-4.262,1.67c-1.02,0.836-2.234,1.355-3.419,1.355
		c-0.443,0-0.888-0.073-1.323-0.226c-0.825-0.287-1.461-0.914-2.37-1.618l0,0c-1.033-0.826-2.18-1.184-3.298-1.182
		c-1.54,0-3.023,0.661-4.261,1.67c-1.02,0.836-2.234,1.355-3.422,1.355c-0.443,0-0.884-0.073-1.323-0.226
		c-0.823-0.287-1.461-0.914-2.368-1.618c-1.033-0.826-2.181-1.184-3.299-1.182c-1.537,0-3.022,0.661-4.26,1.67
		C2.399,36.015,1.186,36.534,0,36.534"/>
	<path fill="#E65345" d="M43.327,33.784c-0.152-0.057-0.314-0.142-0.599-0.354c-0.279-0.203-0.655-0.534-1.171-0.933
		c-1.407-1.122-3.024-1.631-4.533-1.624c-1.02,0.005-1.987,0.215-2.896,0.575l4.152-11.047l-3.355-1.558l-0.002-7.854h-4.053V7.414
		h-5.545V2.488h-6.652v4.926h-5.548v3.575H9.072v7.854l-3.354,1.558l4.058,10.798c-0.701-0.22-1.41-0.33-2.096-0.326
		c-2.091,0.011-3.975,0.877-5.528,2.143C1.451,33.592,0.64,33.907,0,33.898v2.635c1.186,0,2.399-0.519,3.42-1.355
		c1.237-1.01,2.723-1.67,4.26-1.67c1.118-0.002,2.266,0.355,3.299,1.182c0.907,0.705,1.545,1.332,2.368,1.618
		c0.439,0.152,0.88,0.226,1.323,0.226c1.188,0,2.402-0.519,3.422-1.355c1.237-1.01,2.721-1.67,4.261-1.67
		c1.118-0.002,2.265,0.355,3.298,1.182c0.909,0.705,1.545,1.332,2.37,1.618c0.436,0.152,0.88,0.226,1.323,0.226
		c1.185,0,2.399-0.519,3.419-1.355c1.238-1.01,2.722-1.67,4.262-1.67c1.118-0.002,2.263,0.355,3.298,1.182
		c0.909,0.705,1.546,1.332,2.372,1.618c0.431,0.152,0.863,0.222,1.304,0.222v-2.635C43.76,33.895,43.543,33.859,43.327,33.784z
		 M11.802,13.719h4.054v-3.575h12.283v3.575h4.058v3.854L22,12.837l-10.198,4.736V13.719z"/>
	<path fill="#E65345" d="M42.269,38.577c-1.182-0.425-1.953-1.224-2.752-1.828l-0.009-0.007l-0.004-0.002
		c-0.785-0.625-1.62-0.888-2.479-0.891c-1.17-0.002-2.388,0.517-3.415,1.362c-1.233,1.005-2.719,1.662-4.266,1.664
		c-0.579,0-1.166-0.093-1.747-0.297c-1.184-0.425-1.952-1.224-2.752-1.828l-0.012-0.009c-0.789-0.625-1.622-0.888-2.48-0.891
		c-1.171-0.002-2.387,0.517-3.415,1.362c-1.233,1.005-2.719,1.662-4.268,1.664c-0.578,0-1.164-0.093-1.745-0.297
		c-1.183-0.425-1.953-1.224-2.753-1.828l-0.01-0.007L10.16,36.74c-0.786-0.625-1.621-0.888-2.48-0.891
		c-1.169-0.002-2.388,0.517-3.414,1.362C3.035,38.215,1.549,38.872,0,38.874v2.633c2.095-0.007,3.982-0.868,5.533-2.133
		c0.711-0.59,1.528-0.901,2.146-0.891c0.464,0.006,0.824,0.12,1.233,0.44l0.021,0.016l0.027,0.021
		c0.326,0.245,0.718,0.593,1.252,0.995c0.533,0.397,1.225,0.844,2.07,1.143c0.802,0.285,1.608,0.412,2.386,0.408
		c2.096-0.007,3.984-0.868,5.531-2.133c0.715-0.59,1.534-0.901,2.151-0.891c0.461,0.006,0.821,0.12,1.232,0.44l0.025,0.02
		l0.025,0.018c0.324,0.245,0.718,0.593,1.253,0.995c0.53,0.397,1.225,0.844,2.068,1.143c0.802,0.285,1.606,0.412,2.387,0.408
		c2.096-0.007,3.982-0.868,5.531-2.13c0.713-0.593,1.532-0.904,2.149-0.894c0.462,0.006,0.822,0.12,1.233,0.438l0.03,0.023
		l0.02,0.016c0.324,0.245,0.717,0.593,1.254,0.995c0.533,0.397,1.223,0.844,2.066,1.143c0.798,0.282,1.597,0.407,2.37,0.405v-2.632
		C43.425,38.872,42.844,38.779,42.269,38.577z"/>
</g>
<g id="Layer_4">
</g>
<g id="Test">
</g>
</svg>
