<?xml version="1.0" encoding="utf-8"?>
<!-- Generator: Adobe Illustrator 16.0.0, SVG Export Plug-In . SVG Version: 6.00 Build 0)  -->
<!DOCTYPE svg PUBLIC "-//W3C//DTD SVG 1.1//EN" "http://www.w3.org/Graphics/SVG/1.1/DTD/svg11.dtd">
<svg version="1.1" xmlns="http://www.w3.org/2000/svg" xmlns:xlink="http://www.w3.org/1999/xlink" x="0px" y="0px" width="44px"
	 height="44px" viewBox="0 0 44 44" enable-background="new 0 0 44 44" xml:space="preserve">
<g id="Background">
</g>
<g id="Layer_1">
	<g>
		<path fill="#E65345" d="M31.934,11.164C29.388,8.757,25.892,7.3,22.089,7.3c-3.805,0-7.294,1.458-9.842,3.864
			c-2.546,2.392-4.181,5.803-4.179,9.559c-0.63-0.188-1.557-0.453-2.342-0.677c-0.878-0.252-1.583-0.455-1.529-0.455
			c-0.379,0-0.732,0.162-0.992,0.421c-0.256,0.257-0.419,0.611-0.419,0.993c0,0.134,0.013,0.283,0.047,0.433
			c0.035,0.148,0.088,0.298,0.172,0.432l4.123,6.026l4.125,6.023c0.054,0.08,0.095,0.135,0.142,0.17
			c0.048,0.033,0.102,0.047,0.185,0.047c0.079,0,0.135-0.015,0.182-0.047c0.048-0.035,0.088-0.091,0.142-0.17l4.125-6.023
			l4.124-6.026c0.082-0.134,0.136-0.284,0.17-0.432c0.034-0.149,0.048-0.298,0.048-0.433c0-0.381-0.163-0.736-0.421-0.993
			c-0.258-0.259-0.609-0.421-0.991-0.421c0.054,0-0.651,0.203-1.526,0.455c-0.788,0.225-1.717,0.491-2.35,0.679h-0.009
			c0.007-1.721,0.726-3.27,1.984-4.465c1.259-1.187,3.026-1.952,5.031-1.954c2.005,0.002,3.774,0.767,5.035,1.954
			c1.259,1.198,1.979,2.748,1.981,4.471v16.26h7.008V20.73C36.115,16.97,34.481,13.558,31.934,11.164z"/>
	</g>
</g>
<g id="Layer_4">
</g>
<g id="Test">
</g>
</svg>
