<?xml version="1.0" encoding="utf-8"?>
<!-- Generator: Adobe Illustrator 16.0.0, SVG Export Plug-In . SVG Version: 6.00 Build 0)  -->
<!DOCTYPE svg PUBLIC "-//W3C//DTD SVG 1.1//EN" "http://www.w3.org/Graphics/SVG/1.1/DTD/svg11.dtd">
<svg version="1.1" xmlns="http://www.w3.org/2000/svg" xmlns:xlink="http://www.w3.org/1999/xlink" x="0px" y="0px" width="44px"
	 height="44px" viewBox="0 0 44 44" enable-background="new 0 0 44 44" xml:space="preserve">
<g id="Background">
</g>
<g id="Layer_1">
</g>
<g id="Layer_4">
</g>
<g id="Test">
	<g>
		<circle fill="#E65345" cx="22" cy="22.091" r="7.336"/>
		<path fill="#E65345" d="M40.039,20.605h-4.482c-0.689-6.377-5.773-11.438-12.162-12.087V3.962h-2.789v4.557
			c-6.393,0.649-11.475,5.71-12.164,12.087h-4.48v2.789h4.461c0.615,6.464,5.732,11.614,12.184,12.27v4.374h2.789v-4.374
			c6.451-0.657,11.568-5.806,12.182-12.27h4.463V20.605z M22,32.824c-5.928,0-10.732-4.805-10.732-10.734
			c0-5.926,4.805-10.731,10.732-10.731c5.926,0,10.732,4.806,10.732,10.731C32.732,28.02,27.926,32.824,22,32.824z"/>
	</g>
</g>
</svg>
