<?xml version="1.0" encoding="utf-8"?>
<!-- Generator: Adobe Illustrator 16.0.0, SVG Export Plug-In . SVG Version: 6.00 Build 0)  -->
<!DOCTYPE svg PUBLIC "-//W3C//DTD SVG 1.1//EN" "http://www.w3.org/Graphics/SVG/1.1/DTD/svg11.dtd">
<svg version="1.1" xmlns="http://www.w3.org/2000/svg" xmlns:xlink="http://www.w3.org/1999/xlink" x="0px" y="0px" width="44px"
	 height="44px" viewBox="0 0 44 44" enable-background="new 0 0 44 44" xml:space="preserve">
<g id="Background">
</g>
<g id="Layer_1">
	<path opacity="0.5" fill="#E65345" d="M31.236,4.994l0.002-0.002c-1.01-1.007-2.159-1.873-3.4-2.604
		c-2.08-1.227-4.438-2.045-6.958-2.3c-0.331-0.032-0.668-0.035-1.003-0.05c-0.248-0.011-0.494-0.037-0.744-0.037
		C19.105,0,19.08,0,19.054,0c-0.326,0.002-0.651,0.032-0.978,0.052c-0.205,0.013-0.408,0.011-0.611,0.03
		c-0.296,0.03-0.588,0.084-0.885,0.128c-0.248,0.038-0.497,0.061-0.744,0.11c-0.25,0.049-0.496,0.122-0.743,0.181
		c-0.287,0.069-0.577,0.128-0.86,0.212c-0.199,0.061-0.395,0.141-0.594,0.207c-0.326,0.11-0.653,0.212-0.975,0.344
		c-0.129,0.052-0.254,0.119-0.381,0.175c-0.383,0.167-0.766,0.333-1.137,0.529c-0.029,0.014-0.056,0.034-0.082,0.048
		C9.611,2.787,8.248,3.778,7.027,4.992c-3.092,3.07-5.015,7.355-5.014,12.048c-0.006,4.349,1.68,8.731,5.014,12.048
		c0.019,0.02,0.037,0.039,0.055,0.057c3.083,3.045,7.363,4.936,12.051,4.932v0.004c4.367,0.004,8.771-1.672,12.104-4.992
		c3.093-3.07,5.016-7.354,5.016-12.048C36.257,12.693,34.572,8.311,31.236,4.994z M25.75,23.627
		c-1.837,1.827-4.209,2.726-6.617,2.73c-2.599-0.004-4.912-1.037-6.62-2.73c-0.013-0.014-0.026-0.024-0.04-0.039
		c-1.809-1.825-2.696-4.17-2.699-6.548c0.002-2.584,1.04-4.889,2.74-6.587c0.598-0.594,1.254-1.078,1.947-1.478
		c0.107-0.061,0.211-0.13,0.32-0.188c0.039-0.021,0.08-0.035,0.12-0.055c1.323-0.671,2.771-1.006,4.231-1.009
		c0.225,0,0.441,0.018,0.662,0.033c0.104,0.008,0.213,0.008,0.314,0.019c0.205,0.02,0.403,0.057,0.604,0.091
		c0.107,0.018,0.219,0.028,0.326,0.052c0.182,0.035,0.355,0.087,0.533,0.135c0.119,0.032,0.243,0.058,0.361,0.095
		c0.153,0.048,0.301,0.108,0.451,0.164c0.135,0.05,0.273,0.093,0.406,0.149c0.119,0.052,0.234,0.112,0.352,0.17
		c0.156,0.072,0.312,0.141,0.462,0.223c0.079,0.042,0.153,0.094,0.231,0.141c0.182,0.105,0.363,0.208,0.537,0.326
		c0.013,0.009,0.025,0.02,0.039,0.028c0.479,0.328,0.926,0.695,1.338,1.104c1.836,1.828,2.739,4.189,2.742,6.587
		C28.49,19.624,27.451,21.931,25.75,23.627z"/>
	<path fill="#E65345" d="M41.99,16.316c-0.036-0.164-0.096-0.326-0.188-0.476l-4.566-6.639l-4.568-6.64
		c-0.06-0.091-0.104-0.151-0.156-0.187c-0.053-0.038-0.111-0.052-0.203-0.052c-0.091,0-0.15,0.014-0.205,0.052
		c-0.049,0.035-0.096,0.096-0.154,0.187l-4.568,6.64l-4.565,6.639c-0.091,0.149-0.15,0.312-0.188,0.476
		c-0.038,0.166-0.053,0.331-0.053,0.479c0.002,0.419,0.181,0.808,0.465,1.095c0.289,0.285,0.678,0.461,1.096,0.461
		c-0.057,0,0.723-0.223,1.692-0.499c0.872-0.249,1.901-0.543,2.601-0.748h0.002c0,0.644-0.064,1.274-0.19,1.878
		c-0.31,1.517-0.99,2.891-1.944,4.042c-0.191,0.232-0.395,0.453-0.606,0.667c-1.362,1.351-3.119,2.272-5.093,2.593
		c-0.497,0.08-1.003,0.134-1.524,0.134c-1.021,0-2.02,0.41-2.743,1.132c-0.723,0.72-1.136,1.713-1.136,2.729V44h7.759V33.7
		c0.406-0.093,0.809-0.205,1.205-0.328c0.012-0.003,0.021-0.007,0.031-0.009c0.473-0.147,0.93-0.318,1.382-0.504
		c0.124-0.05,0.247-0.104,0.368-0.157c0.373-0.164,0.744-0.339,1.105-0.529c0.086-0.046,0.175-0.087,0.26-0.134
		c0.432-0.235,0.853-0.49,1.261-0.763c0.093-0.061,0.181-0.128,0.274-0.19c0.318-0.221,0.63-0.453,0.932-0.695
		c0.111-0.087,0.221-0.175,0.326-0.264c0.358-0.301,0.709-0.613,1.041-0.941c0.014-0.012,0.028-0.024,0.04-0.035
		c0.874-0.87,1.644-1.847,2.313-2.891c1.698-2.648,2.7-5.794,2.699-9.157h0.001c0.7,0.207,1.728,0.501,2.601,0.75
		c0.969,0.276,1.75,0.499,1.69,0.499c0.42,0,0.81-0.18,1.098-0.461c0.284-0.287,0.466-0.676,0.466-1.095
		C42.045,16.647,42.029,16.482,41.99,16.316z"/>
</g>
<g id="Layer_4">
</g>
<g id="Test">
</g>
</svg>
