<?xml version="1.0" encoding="utf-8"?>
<!-- Generator: Adobe Illustrator 16.0.0, SVG Export Plug-In . SVG Version: 6.00 Build 0)  -->
<!DOCTYPE svg PUBLIC "-//W3C//DTD SVG 1.1//EN" "http://www.w3.org/Graphics/SVG/1.1/DTD/svg11.dtd">
<svg version="1.1" xmlns="http://www.w3.org/2000/svg" xmlns:xlink="http://www.w3.org/1999/xlink" x="0px" y="0px" width="44px"
	 height="44px" viewBox="0 0 44 44" enable-background="new 0 0 44 44" xml:space="preserve">
<g id="Background">
</g>
<g id="Layer_1">
</g>
<g id="Layer_4">
</g>
<g id="Test">
	<g>
		<path opacity="0.5" fill="#E65345" d="M40.331,41.174h-7c0-7.982-6.494-14.477-14.477-14.477c-3.866,0-7.502,1.506-10.236,4.24
			l-4.949-4.949c4.057-4.057,9.449-6.291,15.186-6.291C30.696,19.697,40.331,29.332,40.331,41.174z"/>
		<path fill="#E65345" d="M34.039,25.985l-0.003,0.003c-2.53-2.537-3.988-5.849-4.188-9.396l3.344,0.961l0.002-0.006
			c0.141,0.043,0.289,0.074,0.443,0.074c0.844,0,1.529-0.686,1.529-1.529c0-0.34-0.115-0.65-0.303-0.904l0.006-0.006L26.408,2.83
			V2.826l-0.002,0.002V2.83l-8.453,12.342l0.01,0.01c-0.189,0.256-0.307,0.568-0.307,0.91c0,0.844,0.684,1.529,1.527,1.529
			c0.15,0,0.293-0.029,0.43-0.07l0.002,0.008l3.237-0.931c0.214,5.411,2.396,10.473,6.247,14.323l0.003-0.003
			c2.727,2.734,4.229,6.364,4.229,10.226h7C40.331,35.437,38.097,30.042,34.039,25.985z"/>
	</g>
</g>
</svg>
