<?xml version="1.0" encoding="utf-8"?>
<!-- Generator: Adobe Illustrator 16.0.0, SVG Export Plug-In . SVG Version: 6.00 Build 0)  -->
<!DOCTYPE svg PUBLIC "-//W3C//DTD SVG 1.1//EN" "http://www.w3.org/Graphics/SVG/1.1/DTD/svg11.dtd">
<svg version="1.1" xmlns="http://www.w3.org/2000/svg" xmlns:xlink="http://www.w3.org/1999/xlink" x="0px" y="0px" width="44px"
	 height="44px" viewBox="0 0 44 44" enable-background="new 0 0 44 44" xml:space="preserve">
<g id="Background">
</g>
<g id="Layer_1">
	<path fill="#E65345" d="M43.884,0.146c-0.058-0.057-0.107-0.086-0.164-0.094c-0.058-0.012-0.126,0-0.222,0.018l-7.176,1.342
		l-7.176,1.344c-0.151,0.039-0.299,0.105-0.426,0.189c-0.131,0.082-0.243,0.176-0.34,0.271c-0.269,0.27-0.406,0.635-0.406,0.998
		c0.002,0.367,0.136,0.73,0.404,1c-0.037-0.041,0.604,0.316,1.4,0.758c0.717,0.396,1.561,0.865,2.143,1.178l-5.777,5.779
		c-1.368,1.369-1.368,3.586,0,4.953c0.506,0.512,0.939,1.084,1.303,1.699c0.052,0.086,0.107,0.168,0.154,0.254
		c0.01,0.016,0.017,0.035,0.025,0.051c0.634,1.182,0.992,2.529,0.992,3.977c0,0.584-0.058,1.156-0.17,1.705
		c-0.281,1.375-0.896,2.623-1.758,3.668c-0.173,0.211-0.355,0.412-0.547,0.604c-1.23,1.227-2.816,2.062-4.6,2.355
		c-0.45,0.072-0.906,0.119-1.377,0.121c-0.921,0-1.823,0.371-2.477,1.025s-1.026,1.555-1.026,2.477v8.174h7.007v-5.068
		c0.367-0.084,0.73-0.186,1.09-0.297c0.01-0.004,0.018-0.008,0.027-0.01c0.426-0.135,0.84-0.287,1.248-0.457
		c0.111-0.045,0.222-0.094,0.332-0.143c0.338-0.148,0.672-0.309,0.998-0.48c0.077-0.043,0.158-0.078,0.234-0.121
		c0.391-0.213,0.77-0.443,1.139-0.691c0.084-0.055,0.164-0.115,0.248-0.174c0.287-0.201,0.568-0.41,0.843-0.631
		c0.1-0.078,0.198-0.156,0.294-0.238c0.324-0.273,0.641-0.559,0.939-0.855c0.013-0.01,0.025-0.021,0.036-0.031
		c0.79-0.789,1.484-1.674,2.09-2.623c1.534-2.404,2.438-5.256,2.438-8.309c0-0.477-0.03-0.945-0.071-1.41
		c-0.012-0.127-0.025-0.25-0.042-0.377c-0.043-0.385-0.101-0.764-0.174-1.141c-0.015-0.082-0.026-0.168-0.043-0.248
		c-0.093-0.445-0.208-0.885-0.339-1.314c-0.031-0.105-0.068-0.207-0.102-0.311c-0.113-0.342-0.236-0.682-0.373-1.014
		c-0.041-0.105-0.082-0.213-0.127-0.316c-0.177-0.408-0.367-0.807-0.575-1.195c-0.035-0.066-0.076-0.131-0.112-0.197
		c-0.123-0.219-0.245-0.439-0.377-0.65l3.586-3.582l0,0c0.314,0.582,0.783,1.426,1.18,2.145c0.441,0.797,0.797,1.439,0.759,1.398
		c0.269,0.271,0.634,0.404,0.998,0.404c0.363,0,0.728-0.133,0.999-0.404c0.096-0.094,0.189-0.209,0.271-0.338
		c0.083-0.131,0.15-0.273,0.187-0.428l1.346-7.176l1.342-7.178c0.021-0.096,0.029-0.164,0.021-0.221
		C43.97,0.254,43.939,0.205,43.884,0.146z"/>
	<g opacity="0.5">
		<path fill="#E65345" d="M9.284,34.844c-0.017-0.014-0.032-0.031-0.048-0.049l0,0c-3.012-3.01-4.534-6.988-4.527-10.932l0,0
			c-0.004-4.26,1.733-8.148,4.527-10.934l0,0c3.01-3.014,6.986-4.533,10.932-4.527l0,0c4.258-0.002,8.146,1.734,10.933,4.527l0,0
			l-4.956,4.955c-1.54-1.535-3.631-2.475-5.977-2.477l0,0c-2.176,0.004-4.318,0.818-5.978,2.477l0,0
			c-1.536,1.541-2.475,3.633-2.475,5.979l0,0c0.003,2.154,0.804,4.285,2.437,5.939l0,0c0.014,0.014,0.025,0.025,0.036,0.035l0,0
			c1.544,1.537,3.634,2.477,5.979,2.479l0,0v7.004C15.935,39.322,12.068,37.607,9.284,34.844L9.284,34.844z"/>
	</g>
</g>
<g id="Layer_4">
</g>
<g id="Test">
</g>
</svg>
