<?xml version="1.0" encoding="utf-8"?>
<!-- Generator: Adobe Illustrator 16.0.0, SVG Export Plug-In . SVG Version: 6.00 Build 0)  -->
<!DOCTYPE svg PUBLIC "-//W3C//DTD SVG 1.1//EN" "http://www.w3.org/Graphics/SVG/1.1/DTD/svg11.dtd">
<svg version="1.1" xmlns="http://www.w3.org/2000/svg" xmlns:xlink="http://www.w3.org/1999/xlink" x="0px" y="0px" width="44px"
	 height="44px" viewBox="0 0 44 44" enable-background="new 0 0 44 44" xml:space="preserve">
<g id="Background">
</g>
<g id="Layer_1">
	<path fill="#E65345" d="M42.056,16.469c-0.036-0.046-0.09-0.089-0.171-0.143l-6.024-4.124l-6.023-4.123
		c-0.137-0.081-0.287-0.137-0.434-0.171c-0.15-0.033-0.298-0.044-0.434-0.044c-0.381,0-0.734,0.159-0.993,0.417
		c-0.257,0.26-0.421,0.612-0.42,0.99c0-0.054,0.203,0.651,0.452,1.527c0.227,0.789,0.494,1.717,0.684,2.351h-6.411
		c-0.922,0-1.826,0.374-2.478,1.026c-0.652,0.653-1.026,1.554-1.026,2.478c-0.001,1.637-0.651,3.082-1.721,4.158
		c-1.075,1.068-2.522,1.719-4.161,1.722c-0.922,0-1.824,0.373-2.476,1.026c-0.651,0.651-1.027,1.556-1.027,2.477v6.415V44h7.008
		V32.451v-3.395c2.153-0.607,4.082-1.757,5.611-3.289c1.532-1.529,2.683-3.46,3.289-5.61h3.392
		c-0.189,0.631-0.457,1.562-0.684,2.352c-0.249,0.873-0.453,1.581-0.453,1.523c0.001,0.382,0.164,0.732,0.421,0.992
		c0.259,0.258,0.612,0.421,0.993,0.421c0.136,0,0.283-0.013,0.434-0.047c0.146-0.036,0.297-0.09,0.434-0.172l6.023-4.122
		l6.024-4.127c0.081-0.054,0.135-0.095,0.171-0.142c0.032-0.048,0.045-0.102,0.045-0.185C42.101,16.571,42.088,16.516,42.056,16.469
		z"/>
	<g opacity="0.5">
		<path fill="#E65345" d="M3.786,25.768c0,0-0.002,0-0.002-0.002l0,0l0,0c-2.51-2.507-3.778-5.826-3.775-9.112l0,0l0,0
			c0-0.002,0-0.002,0-0.003l0,0c-0.004-3.288,1.267-6.605,3.775-9.11l0,0c2.496-2.498,5.797-3.766,9.067-3.774l0,0
			c0.016,0,0.031,0,0.047,0l0,0c3.288-0.004,6.607,1.266,9.11,3.774l0,0c2.511,2.507,3.778,5.824,3.774,9.111l0,0l-7.005,0.004
			c-0.005-1.521-0.569-3.003-1.723-4.159l0,0c-1.149-1.146-2.61-1.71-4.107-1.725l0,0c-0.018,0-0.035,0-0.052,0l0,0
			c-1.519,0.006-2.997,0.567-4.157,1.725l0,0c-1.157,1.156-1.721,2.639-1.725,4.154l0,0l0,0c0,0.001,0,0.001,0,0.001l0,0
			c0.007,1.519,0.567,3.003,1.725,4.16l0,0c0.011,0.009,0.021,0.021,0.032,0.03l0,0c1.073,1.051,2.509,1.688,4.125,1.691l0,0l0,0
			v7.007C9.349,29.542,6.106,28.093,3.786,25.768L3.786,25.768z M13.953,10.61v-0.002l0,0l0,0V10.61L13.953,10.61z"/>
	</g>
</g>
<g id="Layer_4">
</g>
<g id="Test">
</g>
</svg>
