<?xml version="1.0" encoding="utf-8"?>
<!-- Generator: Adobe Illustrator 16.0.0, SVG Export Plug-In . SVG Version: 6.00 Build 0)  -->
<!DOCTYPE svg PUBLIC "-//W3C//DTD SVG 1.1//EN" "http://www.w3.org/Graphics/SVG/1.1/DTD/svg11.dtd">
<svg version="1.1" xmlns="http://www.w3.org/2000/svg" xmlns:xlink="http://www.w3.org/1999/xlink" x="0px" y="0px" width="44px"
	 height="44px" viewBox="0 0 44 44" enable-background="new 0 0 44 44" xml:space="preserve">
<g id="Background">
</g>
<g id="Layer_1">
	<g>
		<g opacity="0.5">
			<g>
				<path d="M18.929,25.787v-7.006c1.635-0.002,3.083-0.652,4.158-1.723l0,0l4.954,4.957c-2.32,2.322-5.561,3.771-9.107,3.771l0,0
					H18.929L18.929,25.787z"/>
			</g>
		</g>
	</g>
	<path fill="#E65345" d="M39.656,33.168l-1.342-7.176l-1.342-7.174c-0.038-0.154-0.107-0.299-0.188-0.426
		c-0.081-0.133-0.176-0.246-0.271-0.34c-0.271-0.271-0.636-0.406-0.999-0.406c-0.367,0.002-0.732,0.135-1,0.404
		c0.038-0.039-0.317,0.604-0.759,1.4c-0.397,0.715-0.866,1.561-1.18,2.143l0,0l-4.534-4.533c-1.372-1.369-3.588-1.371-4.957-0.004
		c-1.074,1.07-2.522,1.723-4.157,1.725c-0.923,0-1.826,0.373-2.48,1.025c-0.651,0.652-1.023,1.555-1.023,2.475v6.418V43.98h7.006
		V28.699v-3.396c0.982-0.277,1.916-0.666,2.789-1.154l2.401,2.4l0,0c-0.582,0.312-1.425,0.781-2.145,1.18
		c-0.795,0.441-1.438,0.797-1.398,0.758c-0.269,0.27-0.405,0.633-0.405,0.998s0.136,0.729,0.405,1
		c0.097,0.096,0.209,0.191,0.338,0.271c0.132,0.08,0.274,0.148,0.43,0.186l7.175,1.344l7.177,1.342
		c0.095,0.021,0.164,0.029,0.222,0.021c0.056-0.012,0.104-0.039,0.162-0.096c0.057-0.057,0.086-0.105,0.098-0.162
		C39.687,33.332,39.679,33.264,39.656,33.168z"/>
	<g opacity="0.5">
		<path fill="#E65345" d="M9.818,22.018c-0.019-0.02-0.036-0.037-0.053-0.053l0,0c-2.464-2.488-3.715-5.764-3.725-9.01l0,0
			c0-0.02-0.001-0.039-0.001-0.059l0,0C6.035,9.609,7.307,6.293,9.814,3.789l0,0c2.497-2.502,5.799-3.768,9.068-3.775l0,0
			c0.016,0,0.031,0,0.049,0l0,0c3.285-0.006,6.604,1.266,9.109,3.775l0,0c2.509,2.504,3.779,5.824,3.775,9.111l0,0v0.004
			c0.002,3.545-1.451,6.787-3.772,9.109l0,0l-4.96-4.951c1.071-1.08,1.723-2.527,1.725-4.158l0,0c0,0,0-0.004,0-0.002l0,0
			c-0.003-1.52-0.569-3.002-1.724-4.158l0,0C21.94,7.6,20.478,7.035,18.979,7.018l0,0c-0.017,0.002-0.034,0.002-0.05,0.002l0,0
			c-1.518,0.006-3.003,0.566-4.161,1.725l0,0c-1.154,1.156-1.717,2.639-1.72,4.152l0,0l0,0v0.002l0,0
			c0.004,1.518,0.566,3.002,1.72,4.16l0,0c1.078,1.07,2.525,1.721,4.161,1.723l0,0v7.006C15.379,25.789,12.137,24.338,9.818,22.018
			L9.818,22.018z"/>
	</g>
</g>
<g id="Layer_4">
</g>
<g id="Test">
</g>
</svg>
