<?xml version="1.0" encoding="utf-8"?>
<!-- Generator: Adobe Illustrator 16.0.0, SVG Export Plug-In . SVG Version: 6.00 Build 0)  -->
<!DOCTYPE svg PUBLIC "-//W3C//DTD SVG 1.1//EN" "http://www.w3.org/Graphics/SVG/1.1/DTD/svg11.dtd">
<svg version="1.1" xmlns="http://www.w3.org/2000/svg" xmlns:xlink="http://www.w3.org/1999/xlink" x="0px" y="0px" width="44px"
	 height="44px" viewBox="0 0 44 44" enable-background="new 0 0 44 44" xml:space="preserve">
<g id="Background">
</g>
<g id="Layer_1">
	<polygon opacity="0.5" fill="#E65345" points="5.818,39.49 5.818,4.51 12.824,4.51 12.824,39.49 5.818,39.49 	"/>
	<path fill="#E65345" d="M38.167,9.671c-0.021-0.08-0.048-0.13-0.092-0.167c-0.048-0.037-0.11-0.061-0.201-0.092l-6.888-2.426
		l-6.885-2.426c-0.153-0.041-0.312-0.055-0.465-0.05c-0.152,0.007-0.301,0.03-0.432,0.068c-0.367,0.099-0.666,0.346-0.849,0.662
		c-0.18,0.316-0.247,0.7-0.148,1.066c-0.015-0.054,0.365,0.577,0.834,1.356c0.43,0.717,0.931,1.55,1.278,2.11
		c-4.357,1.092-8.198,3.163-11.228,6.104c-4.67,4.511-7.29,10.977-7.272,18.303v5.311h7.006v-5.311
		c0.019-5.715,1.937-10.145,5.145-13.272c2.113-2.043,4.851-3.547,8.152-4.354c-0.02,0.661-0.035,1.601-0.049,2.419
		c-0.017,0.91-0.03,1.646-0.044,1.593c0.097,0.366,0.346,0.664,0.663,0.849c0.313,0.18,0.696,0.247,1.065,0.149
		c0.132-0.036,0.271-0.089,0.407-0.161c0.135-0.07,0.266-0.161,0.375-0.275l4.752-5.544l4.749-5.542
		c0.067-0.074,0.106-0.125,0.129-0.181C38.188,9.803,38.187,9.748,38.167,9.671z"/>
</g>
<g id="Layer_4">
</g>
<g id="Test">
</g>
</svg>
