<?xml version="1.0" encoding="utf-8"?>
<!-- Generator: Adobe Illustrator 16.0.0, SVG Export Plug-In . SVG Version: 6.00 Build 0)  -->
<!DOCTYPE svg PUBLIC "-//W3C//DTD SVG 1.1//EN" "http://www.w3.org/Graphics/SVG/1.1/DTD/svg11.dtd">
<svg version="1.1" xmlns="http://www.w3.org/2000/svg" xmlns:xlink="http://www.w3.org/1999/xlink" x="0px" y="0px" width="44px"
	 height="44px" viewBox="0 0 44 44" enable-background="new 0 0 44 44" xml:space="preserve">
<g id="Background">
</g>
<g id="Layer_1">
	<g>
		<path fill="#E65345" d="M36.783,25.637l-2.577-6.831l-2.579-6.827c-0.064-0.147-0.155-0.277-0.258-0.39
			c-0.103-0.115-0.217-0.209-0.327-0.287c-0.313-0.218-0.696-0.287-1.055-0.222c-0.358,0.063-0.692,0.26-0.911,0.569
			c0.029-0.044-0.206,0.65-0.502,1.511c-0.267,0.779-0.58,1.69-0.787,2.317h-0.002l-3.84-2.68L13.015,5.164
			c-1.073-0.747-2.468-0.838-3.626-0.233c-1.16,0.604-1.886,1.797-1.886,3.106v30.875h7.011V14.755l5.424,3.785l3.838,2.681
			l-0.002,0.002c-0.516,0.41-1.268,1.021-1.902,1.538c-0.709,0.573-1.279,1.035-1.248,0.99c-0.218,0.312-0.286,0.693-0.222,1.053
			c0.062,0.362,0.26,0.697,0.57,0.914c0.112,0.077,0.241,0.152,0.382,0.209c0.145,0.057,0.297,0.097,0.455,0.107l7.3,0.07
			l7.301,0.066c0.098,0.004,0.165,0,0.222-0.018c0.053-0.02,0.096-0.058,0.141-0.125c0.05-0.064,0.069-0.116,0.069-0.175
			C36.838,25.794,36.816,25.728,36.783,25.637z"/>
	</g>
</g>
<g id="Layer_4">
</g>
<g id="Test">
</g>
</svg>
