<?xml version="1.0" encoding="utf-8"?>
<!-- Generator: Adobe Illustrator 16.0.0, SVG Export Plug-In . SVG Version: 6.00 Build 0)  -->
<!DOCTYPE svg PUBLIC "-//W3C//DTD SVG 1.1//EN" "http://www.w3.org/Graphics/SVG/1.1/DTD/svg11.dtd">
<svg version="1.1" xmlns="http://www.w3.org/2000/svg" xmlns:xlink="http://www.w3.org/1999/xlink" x="0px" y="0px" width="44px"
	 height="44px" viewBox="0 0 44 44" enable-background="new 0 0 44 44" xml:space="preserve">
<g id="Background">
</g>
<g id="Layer_1">
	<g>
		<path fill="#E65345" d="M34.251,3.51c-0.049-0.064-0.09-0.102-0.145-0.122c-0.057-0.02-0.123-0.023-0.222-0.021l-7.3,0.068
			l-7.301,0.07c-0.158,0.011-0.311,0.05-0.453,0.105c-0.141,0.061-0.271,0.134-0.382,0.211c-0.312,0.218-0.511,0.555-0.573,0.913
			c-0.063,0.362,0.005,0.741,0.223,1.053c-0.029-0.045,0.541,0.417,1.246,0.994c0.639,0.516,1.388,1.126,1.904,1.535l0,0
			l-11.65,8.133c-0.941,0.659-1.498,1.725-1.498,2.874v21.312h7.008V21.149l10.153-7.087v0.002c0.208,0.625,0.521,1.538,0.788,2.317
			c0.297,0.859,0.532,1.553,0.503,1.51c0.216,0.312,0.55,0.506,0.911,0.573c0.359,0.063,0.741-0.007,1.054-0.226
			c0.11-0.077,0.226-0.174,0.327-0.287c0.104-0.111,0.195-0.243,0.26-0.387l2.576-6.831l2.576-6.832
			c0.037-0.091,0.057-0.156,0.059-0.215C34.315,3.63,34.295,3.576,34.251,3.51z"/>
	</g>
</g>
<g id="Layer_4">
</g>
<g id="Test">
</g>
</svg>
