<?xml version="1.0" encoding="utf-8"?>
<!-- Generator: Adobe Illustrator 16.0.0, SVG Export Plug-In . SVG Version: 6.00 Build 0)  -->
<!DOCTYPE svg PUBLIC "-//W3C//DTD SVG 1.1//EN" "http://www.w3.org/Graphics/SVG/1.1/DTD/svg11.dtd">
<svg version="1.1" xmlns="http://www.w3.org/2000/svg" xmlns:xlink="http://www.w3.org/1999/xlink" x="0px" y="0px" width="44px"
	 height="44px" viewBox="0 0 44 44" enable-background="new 0 0 44 44" xml:space="preserve">
<g id="Background">
</g>
<g id="Layer_1">
	<path fill="none" d="M23.375,29.928c-0.445-0.662-0.914-1.381-1.377-2.156c-0.463,0.775-0.932,1.494-1.377,2.156
		c-2.193,3.393-3.68,5.467-3.732,10.062c0,0.777,0,1.467,0,2.09h10.219c0-0.623,0-1.312,0-2.09
		C27.055,35.395,25.568,33.32,23.375,29.928z"/>
	<path fill="#E65345" d="M25.508,15.334c0.631,0.189,1.549,0.451,2.348,0.678c0.875,0.25,1.58,0.457,1.525,0.457
		c0.379,0,0.73-0.164,0.99-0.422c0.258-0.26,0.422-0.611,0.422-0.992c0-0.137-0.016-0.285-0.049-0.432
		c-0.033-0.148-0.088-0.299-0.17-0.436l-4.123-6.023l-4.127-6.025c-0.055-0.08-0.094-0.135-0.141-0.17
		C22.135,1.936,22.082,1.922,22,1.922s-0.135,0.014-0.184,0.047c-0.047,0.035-0.088,0.09-0.143,0.17l-4.123,6.025l-4.127,6.023
		c-0.08,0.137-0.135,0.287-0.166,0.436c-0.037,0.146-0.051,0.295-0.051,0.432c0,0.381,0.162,0.732,0.422,0.992
		c0.256,0.258,0.609,0.422,0.988,0.422c-0.051,0,0.652-0.207,1.529-0.457c0.795-0.225,1.711-0.488,2.342-0.678h0.002
		c-0.078,5.146-1.619,7.463-3.729,10.744c-2.113,3.168-4.936,7.391-4.885,13.912c0,0.777,0,1.467,0,2.09h7.012
		c0-0.623,0-1.312,0-2.09c0.053-4.596,1.539-6.67,3.732-10.062c0.445-0.662,0.914-1.381,1.377-2.156
		c0.463,0.775,0.932,1.494,1.377,2.156c2.193,3.393,3.68,5.467,3.732,10.062c0,0.777,0,1.467,0,2.09h7.012c0-0.623,0-1.312,0-2.09
		c0.051-6.521-2.771-10.744-4.885-13.912C27.125,22.795,25.584,20.48,25.508,15.334"/>
</g>
<g id="Layer_4">
</g>
<g id="Test">
</g>
</svg>
