<?xml version="1.0" encoding="utf-8"?>
<!-- Generator: Adobe Illustrator 16.0.0, SVG Export Plug-In . SVG Version: 6.00 Build 0)  -->
<!DOCTYPE svg PUBLIC "-//W3C//DTD SVG 1.1//EN" "http://www.w3.org/Graphics/SVG/1.1/DTD/svg11.dtd">
<svg version="1.1" xmlns="http://www.w3.org/2000/svg" xmlns:xlink="http://www.w3.org/1999/xlink" x="0px" y="0px" width="44px"
	 height="44px" viewBox="0 0 44 44" enable-background="new 0 0 44 44" xml:space="preserve">
<g id="Background">
</g>
<g id="Layer_1">
	<path fill="#E65345" d="M22.258,1.804c-6.953,0-12.59,5.637-12.59,12.59c0,3.991,1.866,7.533,4.765,9.835v2.932l0.008,1.626h-0.001
		c-0.632-0.188-1.56-0.453-2.349-0.682c-0.877-0.25-1.582-0.453-1.526-0.453c-0.38,0-0.731,0.164-0.991,0.42
		c-0.257,0.26-0.422,0.611-0.422,0.994c0,0.133,0.015,0.281,0.049,0.432c0.034,0.148,0.088,0.299,0.17,0.434l4.124,6.023
		l4.126,6.025c0.055,0.082,0.096,0.137,0.142,0.17c0.048,0.033,0.101,0.047,0.183,0.047c0.084,0,0.137-0.014,0.186-0.047
		c0.045-0.033,0.086-0.088,0.139-0.17l4.127-6.025l0.678-0.99l0,0l3.445-5.033c0.082-0.135,0.137-0.285,0.17-0.434
		c0.034-0.15,0.049-0.299,0.049-0.432c-0.002-0.383-0.163-0.734-0.421-0.994c-0.26-0.258-0.61-0.42-0.989-0.42
		c0.051,0-0.65,0.203-1.528,0.453c-0.306,0.088-0.632,0.182-0.954,0.274l0,0c-0.509,0.146-1.008,0.291-1.395,0.407l-0.008-2.039
		v-4.333c0-0.01,0.003-0.02,0.003-0.029c0-1.328-0.749-2.47-1.84-3.063c-1.752-0.941-2.938-2.799-2.938-4.928
		c0-3.087,2.503-5.59,5.59-5.59s5.59,2.503,5.59,5.59c0,2.129-1.186,3.986-2.938,4.928c-1.091,0.594-1.84,1.735-1.84,3.063
		c0,0.01,0.003,0.02,0.003,0.029v5.12c0.82-0.235,1.894-0.546,1.978-0.576l0.276-0.057l0.668,0.109
		c0.313,0.104,0.604,0.284,0.85,0.528c0.413,0.416,0.64,0.955,0.643,1.522c0,0.203-0.022,0.404-0.067,0.602
		c-0.054,0.24-0.142,0.462-0.261,0.657l-4.086,5.97v5.906h7.01V24.229c2.898-2.302,4.765-5.844,4.765-9.835
		C34.848,7.44,29.211,1.804,22.258,1.804z"/>
</g>
<g id="Layer_4">
</g>
<g id="Test">
</g>
</svg>
