<?xml version="1.0" encoding="utf-8"?>
<!-- Generator: Adobe Illustrator 16.0.0, SVG Export Plug-In . SVG Version: 6.00 Build 0)  -->
<!DOCTYPE svg PUBLIC "-//W3C//DTD SVG 1.1//EN" "http://www.w3.org/Graphics/SVG/1.1/DTD/svg11.dtd">
<svg version="1.1" xmlns="http://www.w3.org/2000/svg" xmlns:xlink="http://www.w3.org/1999/xlink" x="0px" y="0px" width="44px"
	 height="44px" viewBox="0 0 44 44" enable-background="new 0 0 44 44" xml:space="preserve">
<g id="Background">
</g>
<g id="Layer_1">
	<path fill="#E65345" d="M30.895,19.828c-0.333-0.336-0.694-0.646-1.066-0.941c-0.106-0.086-0.219-0.166-0.33-0.248
		c-0.277-0.205-0.564-0.402-0.86-0.586c-0.128-0.082-0.255-0.158-0.386-0.236c-0.34-0.193-0.69-0.373-1.049-0.537
		c-0.082-0.035-0.158-0.078-0.238-0.113c-0.444-0.191-0.902-0.355-1.372-0.494c-0.029-0.01-0.058-0.023-0.087-0.033v-3.193h0.001
		c0.632,0.188,1.56,0.453,2.349,0.682c0.877,0.25,1.582,0.453,1.526,0.453c0.38,0,0.731-0.164,0.991-0.42
		c0.257-0.26,0.422-0.611,0.422-0.994c0-0.133-0.015-0.281-0.049-0.432c-0.034-0.148-0.088-0.299-0.17-0.434l-4.124-6.023
		l-4.126-6.025c-0.055-0.082-0.096-0.137-0.142-0.17c-0.048-0.033-0.101-0.047-0.183-0.047c-0.084,0-0.137,0.014-0.186,0.047
		c-0.045,0.033-0.086,0.088-0.139,0.17l-4.127,6.025l-4.123,6.023c-0.082,0.135-0.137,0.285-0.17,0.434
		c-0.034,0.15-0.049,0.299-0.049,0.432c0.002,0.383,0.163,0.734,0.421,0.994c0.26,0.258,0.61,0.42,0.989,0.42
		c-0.051,0,0.65-0.203,1.528-0.453c0.788-0.227,1.718-0.492,2.349-0.682v6.201c0,0.922,0.375,1.826,1.027,2.477
		c0.65,0.652,1.554,1.029,2.478,1.029c1.546,0,2.919,0.617,3.938,1.631c0.438,0.439,0.797,0.949,1.068,1.506
		c0.357,0.734,0.561,1.553,0.561,2.436c0,1.549-0.615,2.918-1.629,3.939c-1.02,1.012-2.391,1.627-3.938,1.629
		c-0.924,0-1.827,0.373-2.478,1.029c-0.652,0.648-1.027,1.553-1.027,2.475V44h7.01v-3.193c0.033-0.01,0.063-0.025,0.098-0.037
		c0.464-0.137,0.917-0.299,1.357-0.488c0.086-0.037,0.164-0.082,0.247-0.121c0.358-0.16,0.706-0.338,1.042-0.531
		c0.133-0.076,0.26-0.156,0.389-0.236c0.295-0.182,0.578-0.377,0.854-0.584c0.113-0.082,0.229-0.164,0.339-0.25
		c0.37-0.297,0.73-0.607,1.063-0.941c1.43-1.428,2.519-3.211,3.129-5.203c0.359-1.168,0.555-2.41,0.555-3.689
		C34.58,25.26,33.167,22.094,30.895,19.828z"/>
	<g opacity="0.5">
		<path fill="#E65345" d="M13.105,37.617c-2.271-2.266-3.688-5.43-3.686-8.893l0,0c-0.002-3.465,1.415-6.633,3.688-8.896l0,0
			c2.264-2.27,5.43-3.688,8.894-3.686l0,0v7.01c-1.552,0-2.921,0.617-3.94,1.631l0,0c-1.014,1.018-1.631,2.391-1.631,3.941l0,0
			c0,1.547,0.617,2.918,1.631,3.939l0,0c1.02,1.012,2.388,1.627,3.94,1.629l0,0v7.008C18.537,41.303,15.371,39.887,13.105,37.617
			L13.105,37.617z"/>
	</g>
</g>
<g id="Layer_4">
</g>
<g id="Test">
</g>
</svg>
