<?xml version="1.0" encoding="utf-8"?>
<!-- Generator: Adobe Illustrator 16.0.0, SVG Export Plug-In . SVG Version: 6.00 Build 0)  -->
<!DOCTYPE svg PUBLIC "-//W3C//DTD SVG 1.1//EN" "http://www.w3.org/Graphics/SVG/1.1/DTD/svg11.dtd">
<svg version="1.1" xmlns="http://www.w3.org/2000/svg" xmlns:xlink="http://www.w3.org/1999/xlink" x="0px" y="0px" width="44px"
	 height="44px" viewBox="0 0 44 44" enable-background="new 0 0 44 44" xml:space="preserve">
<g id="Background">
	<path fill="#E65345" d="M38.967,20.762c-0.619-3.021-2.12-5.729-4.211-7.818c-2.09-2.094-4.799-3.596-7.819-4.215
		c-1.006-0.207-2.046-0.314-3.112-0.314c-0.474,0-0.94,0.029-1.403,0.07c-0.132,0.014-0.263,0.027-0.394,0.043
		c-0.373,0.043-0.741,0.102-1.105,0.168c-0.093,0.02-0.189,0.033-0.284,0.053c-0.438,0.092-0.869,0.203-1.292,0.334
		c-0.116,0.033-0.228,0.074-0.342,0.109c-0.332,0.109-0.655,0.229-0.976,0.359c-0.115,0.047-0.232,0.09-0.344,0.139
		c-0.401,0.174-0.796,0.361-1.179,0.568c-0.072,0.039-0.144,0.084-0.217,0.125c-0.213,0.119-0.427,0.236-0.634,0.365l-3.583-3.584
		c0.582-0.314,1.427-0.781,2.144-1.18c0.794-0.441,1.437-0.797,1.401-0.758c0.269-0.27,0.401-0.633,0.401-0.998
		s-0.134-0.729-0.404-1c-0.096-0.094-0.209-0.189-0.341-0.271c-0.129-0.082-0.272-0.148-0.425-0.186L7.672,1.426L0.495,0.084
		C0.4,0.062,0.332,0.055,0.275,0.062c-0.057,0.012-0.105,0.039-0.164,0.1c-0.057,0.055-0.086,0.105-0.097,0.16
		C0.007,0.381,0.016,0.449,0.036,0.543l1.343,7.178l1.345,7.176c0.036,0.152,0.104,0.299,0.186,0.43
		c0.081,0.127,0.176,0.24,0.27,0.336c0.272,0.27,0.637,0.408,1,0.408c0.367,0,0.73-0.139,0.999-0.404
		c-0.039,0.037,0.317-0.604,0.759-1.402c0.397-0.717,0.867-1.564,1.178-2.145l5.776,5.779c1.369,1.369,3.586,1.369,4.955,0.002
		c1.545-1.537,3.634-2.475,5.978-2.477c0.292,0,0.582,0.014,0.867,0.043c1.99,0.203,3.758,1.088,5.107,2.432
		c0.041,0.041,0.076,0.086,0.116,0.129c0.912,0.953,1.603,2.1,1.993,3.385c0.236,0.777,0.364,1.604,0.365,2.463
		c-0.001,1.299-0.299,2.518-0.818,3.613c-0.417,0.875-0.973,1.676-1.656,2.361c-1.54,1.535-3.629,2.475-5.975,2.475v0.002
		c-0.922,0-1.824,0.375-2.478,1.023c-0.652,0.652-1.026,1.557-1.026,2.48V44h7.008v-5.066c0.367-0.086,0.729-0.186,1.087-0.295
		c0.015-0.006,0.029-0.01,0.045-0.016c0.419-0.133,0.827-0.287,1.229-0.451c0.114-0.047,0.227-0.098,0.34-0.145
		c0.335-0.148,0.663-0.305,0.984-0.475c0.083-0.043,0.169-0.086,0.25-0.129c0.388-0.213,0.765-0.441,1.13-0.688
		c0.089-0.059,0.172-0.121,0.258-0.18c0.285-0.199,0.562-0.404,0.832-0.621c0.1-0.082,0.201-0.162,0.301-0.246
		c0.322-0.271,0.636-0.553,0.935-0.85c0.012-0.012,0.026-0.021,0.039-0.035h-0.002h0.002c0,0,0,0,0-0.002v0.002
		c0.199-0.201,0.381-0.418,0.567-0.627c2.329-2.594,3.79-5.996,3.93-9.721c0.007-0.195,0.029-0.387,0.029-0.58v-0.002
		C39.282,22.811,39.172,21.768,38.967,20.762z"/>
	<g opacity="0.5">
		<path fill="#E65345" d="M12.892,34.805c-3.012-3.008-4.528-6.986-4.526-10.928l0,0v-0.002l0,0l0,0l0,0l0,0
			c0-4.26,1.737-8.146,4.526-10.932l0,0l4.956,4.955c-1.534,1.541-2.471,3.631-2.472,5.977l0,0c0,0.02,0,0.037,0,0.057l0,0
			c0.017,2.156,0.833,4.273,2.472,5.918l0,0c1.541,1.535,3.631,2.475,5.977,2.475l0,0v7.008
			C19.566,39.334,15.682,37.596,12.892,34.805L12.892,34.805z"/>
	</g>
</g>
<g id="Layer_1">
</g>
<g id="Layer_4">
</g>
<g id="Test">
</g>
</svg>
