<?xml version="1.0" encoding="utf-8"?>
<!-- Generator: Adobe Illustrator 16.0.0, SVG Export Plug-In . SVG Version: 6.00 Build 0)  -->
<!DOCTYPE svg PUBLIC "-//W3C//DTD SVG 1.1//EN" "http://www.w3.org/Graphics/SVG/1.1/DTD/svg11.dtd">
<svg version="1.1" xmlns="http://www.w3.org/2000/svg" xmlns:xlink="http://www.w3.org/1999/xlink" x="0px" y="0px" width="44px"
	 height="44px" viewBox="0 0 44 44" enable-background="new 0 0 44 44" xml:space="preserve">
<g id="Background">
</g>
<g id="Layer_1">
	<path opacity="0.5" fill="#E65345" d="M30.395,1.056c-7.494,0-13.571,6.077-13.571,13.571s6.077,13.57,13.571,13.57
		s13.57-6.076,13.57-13.57S37.889,1.056,30.395,1.056z M30.395,21.207c-3.635,0-6.582-2.946-6.582-6.58
		c0-3.635,2.947-6.582,6.582-6.582c3.634,0,6.58,2.947,6.58,6.582C36.975,18.261,34.028,21.207,30.395,21.207z"/>
	<path fill="#E65345" d="M39.997,5.024c-2.446-2.455-5.864-3.982-9.605-3.98c-3.739-0.002-7.157,1.527-9.604,3.979
		c-1.66,1.655-2.896,3.759-3.521,6.101h-3.834l0,0c0.189-0.634,0.456-1.562,0.682-2.352c0.251-0.875,0.454-1.578,0.454-1.525
		c0-0.381-0.162-0.734-0.421-0.992c-0.259-0.256-0.61-0.418-0.992-0.418c-0.133,0-0.283,0.012-0.432,0.048
		c-0.148,0.034-0.299,0.088-0.436,0.169l-6.023,4.123l-6.024,4.125c-0.081,0.055-0.136,0.098-0.171,0.145
		c-0.031,0.046-0.045,0.1-0.045,0.18c0,0.083,0.014,0.139,0.045,0.187c0.035,0.045,0.09,0.088,0.171,0.142l6.024,4.125l6.023,4.121
		c0.137,0.084,0.287,0.139,0.436,0.172s0.299,0.047,0.432,0.047c0.382,0,0.733-0.162,0.992-0.42s0.421-0.61,0.421-0.99
		c0,0.055-0.203-0.65-0.454-1.527c-0.226-0.789-0.492-1.719-0.682-2.351h6.883c0.921,0,1.824-0.374,2.477-1.026
		c0.653-0.652,1.025-1.555,1.025-2.479c0.002-1.826,0.729-3.445,1.926-4.646c1.203-1.195,2.824-1.924,4.649-1.926
		c1.828,0.002,3.448,0.73,4.648,1.924c1.197,1.203,1.925,2.822,1.927,4.654c-0.002,1.824-0.729,3.443-1.925,4.648
		c-1.202,1.192-2.822,1.922-4.65,1.923c-0.921,0-1.823,0.374-2.476,1.028c-0.653,0.649-1.027,1.554-1.027,2.477v6.89V44h7.008
		V31.597v-3.845c2.344-0.625,4.443-1.86,6.1-3.52c2.453-2.448,3.98-5.866,3.977-9.602C43.977,10.889,42.449,7.471,39.997,5.024z"/>
</g>
<g id="Layer_4">
</g>
<g id="Test">
</g>
</svg>
