<?xml version="1.0" encoding="utf-8"?>
<!-- Generator: Adobe Illustrator 16.0.0, SVG Export Plug-In . SVG Version: 6.00 Build 0)  -->
<!DOCTYPE svg PUBLIC "-//W3C//DTD SVG 1.1//EN" "http://www.w3.org/Graphics/SVG/1.1/DTD/svg11.dtd">
<svg version="1.1" xmlns="http://www.w3.org/2000/svg" xmlns:xlink="http://www.w3.org/1999/xlink" x="0px" y="0px" width="44px"
	 height="44px" viewBox="0 0 44 44" enable-background="new 0 0 44 44" xml:space="preserve">
<g id="Background">
</g>
<g id="Layer_1">
</g>
<g id="Layer_4">
</g>
<g id="Test">
	<path fill="#E65345" d="M21.908,34.811c-1.444,0-2.879,0.041-4.305,0.114v3c1.426-0.072,2.86-0.114,4.305-0.114
		c1.506,0,3.002,0.042,4.488,0.121v-3C24.91,34.853,23.414,34.811,21.908,34.811z"/>
	<g>
		<path fill="#E65345" d="M21.908,30.811c-1.444,0-2.879,0.041-4.305,0.114v3c1.426-0.072,2.86-0.114,4.305-0.114
			c1.506,0,3.002,0.042,4.488,0.121v-3C24.91,30.853,23.414,30.811,21.908,30.811z"/>
		<path fill="#E65345" d="M12.848,24.092c0.191,0,0.371-0.034,0.544-0.086l0.003,0.007l4.209-1.21v7.122
			c1.426-0.072,2.86-0.114,4.305-0.114c1.506,0,3.002,0.042,4.488,0.121v-7.128l4.189,1.205l0.002-0.008
			c0.182,0.055,0.366,0.091,0.564,0.091c1.068,0,1.935-0.864,1.935-1.934c0-0.431-0.146-0.827-0.383-1.147l0.007-0.006L21.998,5.359
			l-0.002-0.002l-0.004,0.002L11.287,20.99l0.013,0.015c-0.24,0.322-0.389,0.718-0.389,1.153
			C10.911,23.228,11.779,24.092,12.848,24.092z"/>
	</g>
</g>
</svg>
