<?xml version="1.0" encoding="utf-8"?>
<!-- Generator: Adobe Illustrator 16.0.0, SVG Export Plug-In . SVG Version: 6.00 Build 0)  -->
<!DOCTYPE svg PUBLIC "-//W3C//DTD SVG 1.1//EN" "http://www.w3.org/Graphics/SVG/1.1/DTD/svg11.dtd">
<svg version="1.1" xmlns="http://www.w3.org/2000/svg" xmlns:xlink="http://www.w3.org/1999/xlink" x="0px" y="0px" width="44px"
	 height="44px" viewBox="0 0 44 44" enable-background="new 0 0 44 44" xml:space="preserve">
<g id="Background">
</g>
<g id="Layer_1">
	<g opacity="0.5">
		<path fill="#E65345" d="M16.307,23.187l4.953-4.956c1.203,1.194,2.822,1.925,4.65,1.927l0,0v7.008
			C22.17,27.166,18.754,25.638,16.307,23.187L16.307,23.187z"/>
	</g>
	<path fill="#E65345" d="M35.514,3.98C33.067,1.527,29.65-0.001,25.908,0c-3.74-0.001-7.154,1.527-9.602,3.977
		c-2.454,2.447-3.981,5.867-3.979,9.605c-0.002,2.472,0.666,4.801,1.823,6.803L11.438,23.1l-0.004-0.002
		c-0.312-0.58-0.781-1.426-1.18-2.144c-0.443-0.796-0.797-1.438-0.757-1.398c-0.27-0.271-0.634-0.405-1.001-0.405
		c-0.363,0-0.727,0.135-0.998,0.406c-0.094,0.096-0.188,0.21-0.272,0.339c-0.081,0.129-0.149,0.274-0.186,0.427l-1.345,7.174
		l-1.344,7.178c-0.018,0.096-0.027,0.163-0.02,0.219c0.011,0.057,0.04,0.105,0.098,0.164c0.059,0.059,0.105,0.086,0.162,0.098
		c0.059,0.007,0.123,0,0.223-0.02l7.176-1.344l7.173-1.344c0.154-0.038,0.3-0.106,0.429-0.188c0.131-0.082,0.244-0.175,0.34-0.273
		c0.27-0.269,0.404-0.631,0.404-0.995c-0.002-0.366-0.135-0.73-0.402-0.999c0.038,0.037-0.604-0.316-1.401-0.758
		c-0.718-0.399-1.56-0.866-2.142-1.182l4.828-4.828c0.67-0.645,1.069-1.549,1.069-2.514v-0.002c0-0.957-0.391-1.85-1.045-2.496
		c-1.185-1.197-1.906-2.816-1.906-4.631c0-1.827,0.729-3.449,1.923-4.647c1.203-1.198,2.822-1.925,4.648-1.929
		c1.828,0.004,3.451,0.732,4.65,1.928c1.196,1.201,1.924,2.821,1.925,4.648c-0.001,1.827-0.729,3.449-1.923,4.65
		c-1.201,1.194-2.824,1.925-4.652,1.925c-0.922,0-1.826,0.374-2.479,1.024c-0.652,0.653-1.023,1.556-1.023,2.479v6.888v5.031V44
		h7.008v-8.42v-5.031v-3.842c2.342-0.625,4.445-1.862,6.1-3.521c2.453-2.448,3.979-5.864,3.977-9.604
		C39.494,9.842,37.967,6.426,35.514,3.98z"/>
</g>
<g id="Layer_4">
</g>
<g id="Test">
</g>
</svg>
