<?xml version="1.0" encoding="utf-8"?>
<!-- Generator: Adobe Illustrator 16.0.0, SVG Export Plug-In . SVG Version: 6.00 Build 0)  -->
<!DOCTYPE svg PUBLIC "-//W3C//DTD SVG 1.1//EN" "http://www.w3.org/Graphics/SVG/1.1/DTD/svg11.dtd">
<svg version="1.1" xmlns="http://www.w3.org/2000/svg" xmlns:xlink="http://www.w3.org/1999/xlink" x="0px" y="0px" width="44px"
	 height="44px" viewBox="0 0 44 44" enable-background="new 0 0 44 44" xml:space="preserve">
<g id="Background">
	<g>
		<path fill="#E65345" d="M38.31,12.648c-0.036-0.048-0.089-0.087-0.169-0.144l-6.026-4.123l-6.023-4.124
			c-0.136-0.083-0.285-0.136-0.436-0.173c-0.147-0.032-0.295-0.047-0.431-0.047c-0.382,0-0.734,0.165-0.993,0.423
			c-0.257,0.258-0.421,0.61-0.421,0.988c0-0.052,0.204,0.653,0.457,1.529c0.227,0.795,0.489,1.717,0.68,2.349h-15.8
			c-0.922,0-1.824,0.374-2.477,1.027c-0.652,0.653-1.026,1.553-1.026,2.479v27.129h7.006V16.333h12.296
			c-0.189,0.634-0.453,1.554-0.68,2.352c-0.252,0.875-0.457,1.581-0.457,1.526c0,0.381,0.165,0.732,0.421,0.99
			c0.259,0.258,0.611,0.423,0.993,0.423c0.136,0,0.284-0.016,0.431-0.047c0.15-0.036,0.299-0.089,0.436-0.172l6.023-4.124
			l6.026-4.125c0.08-0.055,0.134-0.095,0.169-0.143c0.032-0.047,0.046-0.101,0.046-0.181C38.356,12.751,38.342,12.697,38.31,12.648z
			"/>
	</g>
</g>
<g id="Layer_1">
</g>
<g id="Layer_4">
</g>
<g id="Test">
</g>
</svg>
