<?xml version="1.0" encoding="utf-8"?>
<!-- Generator: Adobe Illustrator 16.0.4, SVG Export Plug-In . SVG Version: 6.00 Build 0)  -->
<!DOCTYPE svg PUBLIC "-//W3C//DTD SVG 1.1//EN" "http://www.w3.org/Graphics/SVG/1.1/DTD/svg11.dtd">
<svg version="1.1" xmlns="http://www.w3.org/2000/svg" xmlns:xlink="http://www.w3.org/1999/xlink" x="0px" y="0px" width="44px"
	 height="44px" viewBox="0 0 44 44" enable-background="new 0 0 44 44" xml:space="preserve">
<g id="Icons">
	<path fill="#E65345" d="M21.999,3.976c-5.767,0-10.447,4.679-10.447,10.361c0,4.697,2.942,7.327,5.647,11.396
		c0.604,0.989,1.162,2.027,1.624,3.149c0.698,1.661,1.244,3.423,1.745,5.268c0.498,1.839,0.927,3.789,1.108,5.917h0.71
		c0.17-2.128,0.588-4.085,1.079-5.922c0.498-1.846,1.04-3.611,1.725-5.273c0.669-1.62,1.512-3.069,2.427-4.438
		c2.425-3.407,4.781-5.953,4.832-10.097C32.449,8.656,27.77,3.976,21.999,3.976z M21.999,17.979c-1.868,0-3.383-1.516-3.383-3.384
		c0-1.869,1.515-3.385,3.383-3.385c1.869,0,3.385,1.516,3.385,3.385C25.384,16.463,23.868,17.979,21.999,17.979z"/>
</g>
<g id="TurnArrows" display="none">
	<path display="inline" fill="#666666" d="M21.999,3.976c-5.767,0-10.447,4.679-10.447,10.361c0,4.697,2.942,7.327,5.647,11.396
		c0.604,0.989,1.162,2.027,1.624,3.149c0.698,1.661,1.244,3.423,1.745,5.268c0.498,1.839,0.927,3.789,1.108,5.917h0.71
		c0.17-2.128,0.588-4.085,1.079-5.922c0.498-1.846,1.04-3.611,1.725-5.273c0.669-1.62,1.512-3.069,2.427-4.438
		c2.425-3.407,4.781-5.953,4.832-10.097C32.449,8.656,27.77,3.976,21.999,3.976z M21.999,17.979c-1.868,0-3.383-1.516-3.383-3.384
		c0-1.869,1.515-3.385,3.383-3.385c1.869,0,3.385,1.516,3.385,3.385C25.384,16.463,23.868,17.979,21.999,17.979z"/>
</g>
<g id="GreenLayer" display="none">
	<rect display="inline" fill="#0F9D58" width="44" height="44"/>
	<path display="inline" fill="#FFFFFF" d="M21.999,3.976c-5.767,0-10.447,4.679-10.447,10.361c0,4.697,2.942,7.327,5.647,11.396
		c0.604,0.989,1.162,2.027,1.624,3.149c0.698,1.661,1.244,3.423,1.745,5.268c0.498,1.839,0.927,3.789,1.108,5.917h0.71
		c0.17-2.128,0.588-4.085,1.079-5.922c0.498-1.846,1.04-3.611,1.725-5.273c0.669-1.62,1.512-3.069,2.427-4.438
		c2.425-3.407,4.781-5.953,4.832-10.097C32.449,8.656,27.77,3.976,21.999,3.976z M21.999,17.979c-1.868,0-3.383-1.516-3.383-3.384
		c0-1.869,1.515-3.385,3.383-3.385c1.869,0,3.385,1.516,3.385,3.385C25.384,16.463,23.868,17.979,21.999,17.979z"/>
</g>
</svg>
